<svg width="45" height="45" viewBox="0 0 45 45" fill="none" xmlns="http://www.w3.org/2000/svg">
<path d="M33.4944 19.4848L12.3395 29.8804L11.4572 28.0849L32.6121 17.6893L33.4944 19.4848Z" fill="black"/>
<path d="M24.7539 33.9557L17.0684 29.2604L19.582 28.025L22.3906 29.7408V26.6451L24.7539 25.484V33.9557Z" fill="black"/>
<path d="M33.0732 21.3961C33.2861 21.9338 33.4023 22.495 33.4023 23.0768C33.4023 24.391 32.8133 25.6016 31.8428 26.6686C30.8789 27.7282 29.4935 28.7019 27.751 29.5905L26.0312 30.4664V24.8561L28.3955 23.694V26.486C29.1145 26.0075 29.6777 25.5362 30.0947 25.0778C30.7928 24.3101 31.0381 23.6415 31.0381 23.0768C31.0381 22.879 31.0056 22.669 30.9365 22.4459L33.0732 21.3961Z" fill="black"/>
<path d="M24.7539 19.6539L22.3906 20.8151V16.2379L16.7637 19.6764H13.4072V25.2291L11.0439 26.3903V17.3131H16.0977L24.7539 12.024V19.6539Z" fill="black"/>
<path d="M27.751 16.5631C28.298 16.8421 28.8085 17.1316 29.2832 17.4274L26.0312 19.026V15.6871L27.751 16.5631Z" fill="black"/>
</svg>
